<!DOCTYPE svg PUBLIC "-//W3C//DTD SVG 1.1//EN" "http://www.w3.org/Graphics/SVG/1.1/DTD/svg11.dtd"[]><svg xmlns="http://www.w3.org/2000/svg" version="1.1" width="187" height="49" style="shape-rendering:geometricPrecision; text-rendering:geometricPrecision; image-rendering:optimizeQuality; fill-rule:evenodd; clip-rule:evenodd" xmlns:xlink="http://www.w3.org/1999/xlink" viewBox="0 0 1200 320"><g><path style="opacity:0.885" fill="#484848" d="M 839.5,17.5 C 849.023,18.1784 856.857,22.1784 863,29.5C 865.394,33.6718 864.894,37.3385 861.5,40.5C 857.629,35.4636 852.962,31.2969 847.5,28C 843.058,25.2586 840.224,26.4252 839,31.5C 838.271,41.527 838.437,51.527 839.5,61.5C 848.485,60.6451 857.485,59.9785 866.5,59.5C 866.5,57.8333 866.5,56.1667 866.5,54.5C 870.5,54.5 874.5,54.5 878.5,54.5C 878.334,47.825 878.5,41.1583 879,34.5C 881.053,30.7084 884.219,29.5418 888.5,31C 889.191,32.0674 889.691,33.2341 890,34.5C 890.293,40.8666 890.793,47.1999 891.5,53.5C 898.658,52.9204 905.658,52.0871 912.5,51C 913.667,52.1667 914.833,53.3333 916,54.5C 917.968,60.4322 920.468,66.0988 923.5,71.5C 925.727,66.0461 928.227,60.7128 931,55.5C 933.153,53.5561 935.653,53.0561 938.5,54C 943.847,59.2017 948.347,65.035 952,71.5C 953.562,64.9427 955.896,58.6094 959,52.5C 961.559,49.6508 964.726,48.8175 968.5,50C 967.505,63.0125 964.005,75.5125 958,87.5C 953.483,91.5523 949.483,90.8856 946,85.5C 943,80.8333 940,76.1667 937,71.5C 935.797,77.3144 934.13,82.981 932,88.5C 929.441,91.3492 926.274,92.1825 922.5,91C 914.624,80.4465 908.457,68.9465 904,56.5C 903.505,58.4727 903.338,60.4727 903.5,62.5C 899.5,62.5 895.5,62.5 891.5,62.5C 891.832,71.8571 891.498,81.1904 890.5,90.5C 886.273,92.5008 883.107,91.5008 881,87.5C 880.226,79.8497 879.726,72.1831 879.5,64.5C 876.572,63.5159 873.572,63.1826 870.5,63.5C 870.5,64.8333 870.5,66.1667 870.5,67.5C 861.524,68.747 852.524,69.9137 843.5,71C 842.389,77.1094 842.389,83.2761 843.5,89.5C 839.5,89.5 835.5,89.5 831.5,89.5C 831.595,84.113 831.095,78.7797 830,73.5C 826.067,75.9868 821.9,76.6534 817.5,75.5C 813.144,83.5121 806.477,88.3454 797.5,90C 773.706,92.5425 766.206,82.7091 775,60.5C 786.38,49.1068 799.213,46.9401 813.5,54C 817.082,57.737 818.915,62.237 819,67.5C 822.005,65.9985 825.171,64.9985 828.5,64.5C 826.463,52.5202 826.296,40.5202 828,28.5C 829.789,22.5412 833.622,18.8745 839.5,17.5 Z M 798.5,57.5 C 804.802,57.8022 808.136,61.1355 808.5,67.5C 807.307,76.1137 802.307,80.6137 793.5,81C 785.063,82.9029 781.563,79.7362 783,71.5C 785.23,63.4307 790.396,58.7641 798.5,57.5 Z" /></g><g><path style="opacity:0.996" fill="#4d4e4e" d="M 508.5,150.5 C 522.598,144.285 536.598,137.785 550.5,131C 551.944,130.219 553.277,130.386 554.5,131.5C 555.97,134.273 557.303,137.106 558.5,140C 558.355,140.772 558.022,141.439 557.5,142C 542.68,148.91 528.013,156.077 513.5,163.5C 529.248,171.707 545.248,179.374 561.5,186.5C 565.511,188.173 569.511,189.84 573.5,191.5C 572.546,155.193 572.213,118.859 572.5,82.5C 547.418,69.9588 522.085,57.9588 496.5,46.5C 496.165,78.3465 495.165,110.013 493.5,141.5C 490.404,140.453 487.404,139.12 484.5,137.5C 483.833,104.833 483.167,72.1667 482.5,39.5C 476.379,36.9397 470.379,34.1064 464.5,31C 466.934,27.1548 469.267,23.3215 471.5,19.5C 517.447,40.8647 563.114,62.698 608.5,85C 607.961,87.4818 606.961,89.6484 605.5,91.5C 604.607,93.297 603.274,94.6304 601.5,95.5C 596.49,93.5787 591.657,91.2453 587,88.5C 586.167,125.171 586.333,161.838 587.5,198.5C 607.442,207.471 627.108,216.971 646.5,227C 644.968,231.235 642.801,235.069 640,238.5C 630.227,233.697 620.394,229.03 610.5,224.5C 609.614,225.325 609.281,226.325 609.5,227.5C 609.5,251.833 609.5,276.167 609.5,300.5C 605.5,300.5 601.5,300.5 597.5,300.5C 597.831,272.662 597.498,244.995 596.5,217.5C 563.397,202.449 530.397,187.116 497.5,171.5C 482.565,177.968 467.898,184.968 453.5,192.5C 470.899,201.199 488.232,209.866 505.5,218.5C 503.825,222.525 501.659,226.192 499,229.5C 486.322,223.911 473.822,217.911 461.5,211.5C 460.502,236.995 460.169,262.661 460.5,288.5C 470.833,288.5 481.167,288.5 491.5,288.5C 491.5,292.5 491.5,296.5 491.5,300.5C 377.833,300.5 264.167,300.5 150.5,300.5C 150.5,296.5 150.5,292.5 150.5,288.5C 166.167,288.5 181.833,288.5 197.5,288.5C 198.583,288.461 199.583,288.127 200.5,287.5C 201.666,262.173 201.833,236.84 201,211.5C 189.221,217.306 177.388,222.973 165.5,228.5C 163.801,228.473 162.467,227.806 161.5,226.5C 158.856,223.745 157.856,220.578 158.5,217C 175.509,208.829 192.509,200.662 209.5,192.5C 194.915,185.025 180.082,178.025 165,171.5C 131.626,186.771 98.459,202.438 65.5,218.5C 64.5021,245.662 64.1688,272.995 64.5,300.5C 61.1667,300.5 57.8333,300.5 54.5,300.5C 54.5,274.833 54.5,249.167 54.5,223.5C 53.209,223.263 52.209,223.596 51.5,224.5C 43.0774,229.045 34.4107,233.045 25.5,236.5C 23.7085,236.634 22.0418,236.301 20.5,235.5C 18.7463,232.767 17.0797,229.933 15.5,227C 35.2571,217.372 55.0904,207.872 75,198.5C 75.6667,161.833 75.6667,125.167 75,88.5C 69.9117,91.2943 64.7451,93.961 59.5,96.5C 57.295,93.4234 55.6284,90.0901 54.5,86.5C 54.5569,85.391 54.8902,84.391 55.5,83.5C 101.053,61.8899 146.719,40.5566 192.5,19.5C 193.927,23.6263 195.427,27.6263 197,31.5C 191.242,34.2953 185.408,36.962 179.5,39.5C 178.667,72.1616 178.167,104.828 178,137.5C 174.676,139.579 171.176,141.246 167.5,142.5C 166.833,110.5 166.167,78.5 165.5,46.5C 139.7,58.3782 114.033,70.5449 88.5,83C 88.698,118.768 89.3647,154.935 90.5,191.5C 93.8599,189.82 97.1932,188.153 100.5,186.5C 116.505,178.832 132.505,171.166 148.5,163.5C 133.811,156.488 119.145,149.488 104.5,142.5C 104.31,138.496 105.643,134.83 108.5,131.5C 109.365,130.417 110.365,130.251 111.5,131C 125.362,137.788 139.362,144.288 153.5,150.5C 153.5,151.167 153.833,151.5 154.5,151.5C 157.262,152.38 159.929,153.546 162.5,155C 164.167,155.667 165.833,155.667 167.5,155C 184.621,147.273 201.621,139.273 218.5,131C 219.793,130.51 221.127,130.343 222.5,130.5C 223.57,134.08 224.903,137.58 226.5,141C 226.167,141.5 225.833,142 225.5,142.5C 210.711,149.395 196.044,156.561 181.5,164C 196.436,170.72 211.27,177.553 226,184.5C 232.452,181.69 238.952,179.023 245.5,176.5C 246.117,176.389 246.617,176.056 247,175.5C 247.167,160.667 247.333,145.833 247.5,131C 247.499,115.818 246.833,100.985 245.5,86.5C 238.739,89.9638 231.906,93.2971 225,96.5C 223.349,93.1978 221.682,89.8644 220,86.5C 219.251,85.365 219.417,84.365 220.5,83.5C 252.138,69.0132 283.472,54.0132 314.5,38.5C 308.098,35.4246 301.764,32.2579 295.5,29C 297.864,25.4414 299.531,21.608 300.5,17.5C 310.829,21.7467 320.995,26.4133 331,31.5C 340.757,26.705 350.591,22.0383 360.5,17.5C 363.322,21.476 365.322,25.8094 366.5,30.5C 359.932,32.7834 353.599,35.6168 347.5,39C 379.707,53.9548 411.707,69.2882 443.5,85C 441.46,88.9144 439.293,92.7478 437,96.5C 430.457,92.8953 423.791,89.5619 417,86.5C 416.5,116.498 416.333,146.498 416.5,176.5C 422.4,178.449 428.066,180.949 433.5,184C 435.167,184.667 436.833,184.667 438.5,184C 452.654,177.423 466.654,170.59 480.5,163.5C 465.842,156.505 451.175,149.505 436.5,142.5C 435.417,141.635 435.251,140.635 436,139.5C 437.897,136.873 439.397,134.039 440.5,131C 441.833,130.333 443.167,130.333 444.5,131C 462.046,139.356 479.546,147.856 497,156.5C 500.781,154.36 504.615,152.36 508.5,150.5 Z M 403.5,91.5 C 389.938,85.9197 376.605,79.9197 363.5,73.5C 362.71,72.5987 361.71,71.9321 360.5,71.5C 361.231,69.4012 361.231,67.4012 360.5,65.5C 359.83,67.2914 359.163,68.9581 358.5,70.5C 357.503,87.6586 357.17,104.992 357.5,122.5C 348.937,126.814 340.271,131.147 331.5,135.5C 322.321,131.409 313.321,127.076 304.5,122.5C 304.181,105.786 304.515,89.1192 305.5,72.5C 305.192,71.6919 304.692,71.0253 304,70.5C 289.342,77.913 274.508,84.913 259.5,91.5C 259.176,87.4454 259.509,83.4454 260.5,79.5C 284.082,68.3066 307.748,57.3066 331.5,46.5C 354.833,57.5 378.167,68.5 401.5,79.5C 402.287,80.2421 402.953,81.0754 403.5,82C 402.862,85.0707 402.862,88.2374 403.5,91.5 Z M 304.5,138.5 C 308.053,139.517 311.386,141.017 314.5,143C 311.294,144.769 307.961,146.269 304.5,147.5C 304.5,144.5 304.5,141.5 304.5,138.5 Z M 356.5,138.5 C 357.477,141.287 357.81,144.287 357.5,147.5C 354.074,146.289 350.741,144.789 347.5,143C 350.527,141.487 353.527,139.987 356.5,138.5 Z M 444.5,203.5 C 445.209,204.404 446.209,204.737 447.5,204.5C 447.5,208.167 447.5,211.833 447.5,215.5C 429.225,207.681 411.225,199.181 393.5,190C 392.207,189.51 390.873,189.343 389.5,189.5C 389.5,222.167 389.5,254.833 389.5,287.5C 350.5,287.5 311.5,287.5 272.5,287.5C 272.5,254.833 272.5,222.167 272.5,189.5C 271.852,187.914 271.352,186.247 271,184.5C 269.372,185.962 269.205,187.628 270.5,189.5C 251.829,198.502 233.162,207.502 214.5,216.5C 214.207,212.563 214.54,208.73 215.5,205C 253.94,186.697 292.44,168.53 331,150.5C 368.764,168.299 406.597,185.965 444.5,203.5 Z" /></g><g><path style="opacity:0.89" fill="#484848" d="M 750.5,36.5 C 754.936,36.2101 759.27,36.7101 763.5,38C 764.935,40.2672 764.602,42.2672 762.5,44C 754.368,46.7458 746.034,48.7458 737.5,50C 734.71,50.5609 732.377,51.8942 730.5,54C 743.036,58.0127 755.703,61.5127 768.5,64.5C 770.349,72.3077 767.682,78.1411 760.5,82C 751.537,86.6544 742.037,89.4878 732,90.5C 725.667,90.2786 720,88.2786 715,84.5C 713,82.1667 713,79.8333 715,77.5C 717.257,75.9544 719.424,74.2877 721.5,72.5C 722.646,75.2794 723.979,77.9461 725.5,80.5C 737.285,82.2955 747.618,79.1288 756.5,71C 745.23,68.0793 733.897,65.4126 722.5,63C 716.664,60.78 715.164,56.9467 718,51.5C 721.536,46.9804 726.036,43.8137 731.5,42C 737.835,39.7106 744.169,37.8773 750.5,36.5 Z" /></g><g><path style="opacity:0.887" fill="#484848" d="M 1017.5,46.5 C 1023.25,46.6004 1026.42,49.6004 1027,55.5C 1034.27,50.2092 1042.43,47.8758 1051.5,48.5C 1061.21,46.5656 1064.21,50.0656 1060.5,59C 1055.26,58.0729 1049.93,57.7395 1044.5,58C 1035.09,59.4099 1029.76,64.7433 1028.5,74C 1029.33,79.4878 1030,84.9878 1030.5,90.5C 1027.93,90.3444 1025.43,90.6777 1023,91.5C 1020.35,90.8467 1018.68,89.18 1018,86.5C 1016.83,74.4382 1015.33,62.4382 1013.5,50.5C 1014.37,48.603 1015.7,47.2696 1017.5,46.5 Z" /></g><g><path style="opacity:0.903" fill="#484848" d="M 1078.5,48.5 C 1089.22,46.4621 1098.06,49.4621 1105,57.5C 1106.93,63.4793 1105.09,67.646 1099.5,70C 1091.83,70.3333 1084.17,70.6667 1076.5,71C 1072.45,72.471 1071.62,74.971 1074,78.5C 1075.91,79.9298 1078.07,80.5965 1080.5,80.5C 1087.09,79.58 1093.43,77.7466 1099.5,75C 1107.73,74.8374 1108.73,77.8374 1102.5,84C 1091.46,90.8749 1079.79,92.2082 1067.5,88C 1062.24,84.8104 1059.91,80.1438 1060.5,74C 1060.9,61.4471 1066.9,52.9471 1078.5,48.5 Z M 1085.5,56.5 C 1087.93,56.523 1090.26,57.023 1092.5,58C 1093.71,58.8928 1093.71,59.7261 1092.5,60.5C 1087.22,61.6178 1081.89,61.7845 1076.5,61C 1079.44,59.1991 1082.44,57.6991 1085.5,56.5 Z" /></g><g><path style="opacity:0.883" fill="#484848" d="M 993.5,49.5 C 998.179,49.3342 1002.85,49.5008 1007.5,50C 1011.05,52.5944 1012.88,56.0944 1013,60.5C 1013.31,70.2279 1014.14,79.8946 1015.5,89.5C 1012.1,89.8204 1008.77,89.487 1005.5,88.5C 1004.94,86.1463 1004.27,83.813 1003.5,81.5C 995.369,88.6989 986.036,90.8656 975.5,88C 971.354,86.028 969.354,82.6947 969.5,78C 971.939,63.734 979.939,54.234 993.5,49.5 Z M 997.5,58.5 C 1000.93,57.7553 1002.6,59.0886 1002.5,62.5C 999.879,72.288 993.712,78.6213 984,81.5C 979.873,78.3791 979.54,74.7125 983,70.5C 986.848,65.1796 991.681,61.1796 997.5,58.5 Z" /></g><g><path style="opacity:0.379" fill="#fafdfe" d="M 154.5,67.5 C 154.719,66.325 154.386,65.325 153.5,64.5C 152.893,64.6236 152.56,64.9569 152.5,65.5C 151.609,66.1098 150.609,66.4431 149.5,66.5C 151.144,64.5193 152.81,62.5193 154.5,60.5C 150.922,58.7656 151.422,57.4323 156,56.5C 160.578,57.4323 161.078,58.7656 157.5,60.5C 157.709,61.086 158.043,61.586 158.5,62C 156.532,63.4615 155.198,65.2948 154.5,67.5 Z" /></g><g><path style="opacity:0.491" fill="#e5e5e5" d="M 316.5,70.5 C 314.974,69.5081 314.307,68.0081 314.5,66C 314.833,64.8333 315.167,63.6667 315.5,62.5C 316.48,65.0865 316.813,67.7531 316.5,70.5 Z" /></g><g><path style="opacity:0.44" fill="#e3e5e5" d="M 360.5,71.5 C 359.508,71.6716 358.842,71.3382 358.5,70.5C 359.163,68.9581 359.83,67.2914 360.5,65.5C 361.231,67.4012 361.231,69.4012 360.5,71.5 Z" /></g><g><path style="opacity:0.999" fill="#77c4f9" d="M 152.5,65.5 C 153.498,93.6618 153.831,121.995 153.5,150.5C 139.362,144.288 125.362,137.788 111.5,131C 110.365,130.251 109.365,130.417 108.5,131.5C 105.643,134.83 104.31,138.496 104.5,142.5C 119.145,149.488 133.811,156.488 148.5,163.5C 132.505,171.166 116.505,178.832 100.5,186.5C 100.333,154.165 100.5,121.832 101,89.5C 102.33,88.4178 103.83,87.7512 105.5,87.5C 117.354,82.0722 129.021,76.4055 140.5,70.5C 143.378,68.8946 146.378,67.5612 149.5,66.5C 150.609,66.4431 151.609,66.1098 152.5,65.5 Z" /></g><g><path style="opacity:0.998" fill="#494949" d="M 317.5,70.5 C 321.514,70.3345 325.514,70.5012 329.5,71C 328.544,74.3936 328.211,77.8936 328.5,81.5C 325.038,82.4816 321.371,82.815 317.5,82.5C 317.5,78.5 317.5,74.5 317.5,70.5 Z" /></g><g><path style="opacity:1" fill="#515151" d="M 344.5,80.5 C 341.316,82.4136 337.649,83.0803 333.5,82.5C 332.517,78.7016 332.183,74.7016 332.5,70.5C 336.846,70.3343 341.179,70.501 345.5,71C 344.549,74.0567 344.216,77.2234 344.5,80.5 Z" /></g><g><path style="opacity:0.999" fill="#76c4fa" d="M 304.5,122.5 C 297.493,119.913 290.659,116.913 284,113.5C 281.462,116.736 279.296,120.236 277.5,124C 286.502,128.834 295.502,133.668 304.5,138.5C 304.5,141.5 304.5,144.5 304.5,147.5C 289.714,155.059 274.714,162.392 259.5,169.5C 258.177,143.434 258.177,117.434 259.5,91.5C 274.508,84.913 289.342,77.913 304,70.5C 304.692,71.0253 305.192,71.6919 305.5,72.5C 304.515,89.1192 304.181,105.786 304.5,122.5 Z" /></g><g><path style="opacity:0.999" fill="#76c4fa" d="M 363.5,73.5 C 376.605,79.9197 389.938,85.9197 403.5,91.5C 403.833,117.509 403.5,143.509 402.5,169.5C 387.32,162.409 372.32,155.076 357.5,147.5C 357.81,144.287 357.477,141.287 356.5,138.5C 365.957,133.938 375.29,129.105 384.5,124C 382.73,120.634 381.397,117.134 380.5,113.5C 373.018,116.106 365.684,119.106 358.5,122.5C 358.333,107.163 358.5,91.8297 359,76.5C 359.589,74.1367 361.089,73.1367 363.5,73.5 Z" /></g><g><path style="opacity:0.863" fill="#93d0fa" d="M 358.5,70.5 C 358.842,71.3382 359.508,71.6716 360.5,71.5C 361.71,71.9321 362.71,72.5987 363.5,73.5C 361.089,73.1367 359.589,74.1367 359,76.5C 358.5,91.8297 358.333,107.163 358.5,122.5C 358.167,122.5 357.833,122.5 357.5,122.5C 357.17,104.992 357.503,87.6586 358.5,70.5 Z" /></g><g><path style="opacity:0.382" fill="#f3f9fd" d="M 140.5,70.5 C 129.021,76.4055 117.354,82.0722 105.5,87.5C 106.568,85.2598 108.234,83.4264 110.5,82C 114.489,80.6686 118.489,79.3353 122.5,78C 127.579,75.7058 132.079,72.5392 136,68.5C 137.47,69.2666 138.97,69.9332 140.5,70.5 Z" /></g><g><path style="opacity:0.575" fill="#c7c7c7" d="M 316.5,70.5 C 316.833,70.5 317.167,70.5 317.5,70.5C 317.5,74.5 317.5,78.5 317.5,82.5C 321.371,82.815 325.038,82.4816 328.5,81.5C 329.043,81.56 329.376,81.8933 329.5,82.5C 325.5,83.1667 321.5,83.8333 317.5,84.5C 317.709,85.086 318.043,85.586 318.5,86C 322.025,86.1787 325.359,86.6787 328.5,87.5C 324.833,87.5 321.167,87.5 317.5,87.5C 317.5,91.5 317.5,95.5 317.5,99.5C 317.167,99.5 316.833,99.5 316.5,99.5C 316.846,96.3979 316.179,93.5645 314.5,91C 315.901,84.4404 316.568,77.6071 316.5,70.5 Z" /></g><g><path style="opacity:0.808" fill="#aeaeae" d="M 344.5,80.5 C 345.404,81.209 345.737,82.209 345.5,83.5C 341.298,83.8168 337.298,83.4834 333.5,82.5C 337.649,83.0803 341.316,82.4136 344.5,80.5 Z" /></g><g><path style="opacity:0.714" fill="#9d9d9d" d="M 55.5,83.5 C 54.8902,84.391 54.5569,85.391 54.5,86.5C 53.1148,85.0527 53.4482,84.0527 55.5,83.5 Z" /></g><g><path style="opacity:0.979" fill="#797979" d="M 245.5,86.5 C 246.833,100.985 247.499,115.818 247.5,131C 247.333,145.833 247.167,160.667 247,175.5C 246.617,176.056 246.117,176.389 245.5,176.5C 245.598,146.286 245.598,116.286 245.5,86.5 Z" /></g><g><path style="opacity:1" fill="#4c4c4c" d="M 328.5,87.5 C 328.241,91.2396 328.574,94.9062 329.5,98.5C 325.555,99.4909 321.555,99.8242 317.5,99.5C 317.5,95.5 317.5,91.5 317.5,87.5C 321.167,87.5 324.833,87.5 328.5,87.5 Z" /></g><g><path style="opacity:0.998" fill="#4a4a4a" d="M 344.5,87.5 C 344.395,91.5483 344.728,95.5483 345.5,99.5C 341.5,99.5 337.5,99.5 333.5,99.5C 333.5,95.5 333.5,91.5 333.5,87.5C 337.167,87.5 340.833,87.5 344.5,87.5 Z" /></g><g><path style="opacity:0.527" fill="#bcbcbc" d="M 344.5,87.5 C 340.833,87.5 337.167,87.5 333.5,87.5C 333.5,91.5 333.5,95.5 333.5,99.5C 332.515,95.3656 332.182,91.0323 332.5,86.5C 337.278,86.1649 341.278,86.4982 344.5,87.5 Z" /></g><g><path style="opacity:1" fill="#6d6d6d" d="M 496.5,46.5 C 496.833,78.8402 496.5,111.174 495.5,143.5C 494.478,143.145 493.811,142.478 493.5,141.5C 495.165,110.013 496.165,78.3465 496.5,46.5 Z" /></g><g><path style="opacity:0.894" fill="#a4a4a4" d="M 605.5,91.5 C 605.771,95.1512 604.437,96.4846 601.5,95.5C 603.274,94.6304 604.607,93.297 605.5,91.5 Z" /></g><g><path style="opacity:0.508" fill="#e5e5e5" d="M 316.5,99.5 C 316.931,104.032 316.431,108.365 315,112.5C 314.333,108.5 314.333,104.5 315,100.5C 315.383,99.944 315.883,99.6107 316.5,99.5 Z" /></g><g><path style="opacity:0.668" fill="#afddfc" d="M 152.5,65.5 C 152.56,64.9569 152.893,64.6236 153.5,64.5C 154.386,65.325 154.719,66.325 154.5,67.5C 154.5,95.5 154.5,123.5 154.5,151.5C 153.833,151.5 153.5,151.167 153.5,150.5C 153.831,121.995 153.498,93.6618 152.5,65.5 Z" /></g><g><path style="opacity:0.978" fill="#77c5f9" d="M 561.5,186.5 C 545.248,179.374 529.248,171.707 513.5,163.5C 528.013,156.077 542.68,148.91 557.5,142C 558.022,141.439 558.355,140.772 558.5,140C 557.303,137.106 555.97,134.273 554.5,131.5C 553.277,130.386 551.944,130.219 550.5,131C 536.598,137.785 522.598,144.285 508.5,150.5C 508.765,121.819 508.431,93.152 507.5,64.5C 525.839,72.8954 544.172,81.3954 562.5,90C 562.143,122.359 561.809,154.526 561.5,186.5 Z" /></g><g><path style="opacity:0.506" fill="#909090" d="M 165.5,46.5 C 166.167,78.5 166.833,110.5 167.5,142.5C 167.44,143.043 167.107,143.376 166.5,143.5C 165.5,111.174 165.167,78.8402 165.5,46.5 Z" /></g><g><path style="opacity:0.883" fill="#484848" d="M 676.5,130.5 C 681.064,130.55 684.564,132.55 687,136.5C 689.942,142.718 692.609,149.051 695,155.5C 695.833,156.333 696.667,157.167 697.5,158C 700.5,158.333 703.5,158.667 706.5,159C 707,159.5 707.5,160 708,160.5C 708.728,157.77 708.562,155.103 707.5,152.5C 710.289,148.262 713.789,147.596 718,150.5C 719.275,152.717 720.275,155.051 721,157.5C 725.513,153.828 730.68,151.662 736.5,151C 742.749,150.191 748.916,150.358 755,151.5C 757.018,154.781 756.851,157.948 754.5,161C 749.262,160.073 743.929,159.74 738.5,160C 729.09,161.41 723.756,166.743 722.5,176C 723.332,181.488 723.998,186.988 724.5,192.5C 721.934,192.344 719.434,192.678 717,193.5C 714.347,192.847 712.68,191.18 712,188.5C 711.073,179.825 710.073,171.158 709,162.5C 707.169,165.839 704.335,167.839 700.5,168.5C 702.697,175.227 705.697,181.561 709.5,187.5C 707.191,192.075 703.691,193.742 699,192.5C 695.227,184.617 691.227,176.95 687,169.5C 681.188,171.078 675.355,172.578 669.5,174C 667.951,179.978 665.618,185.645 662.5,191C 654.58,192.658 652.08,189.824 655,182.5C 661.278,166.275 667.278,149.942 673,133.5C 674.145,132.364 675.312,131.364 676.5,130.5 Z M 679.5,147.5 C 681.531,151.237 683.198,155.237 684.5,159.5C 681.276,162.186 677.609,163.353 673.5,163C 676.204,158.094 678.204,152.928 679.5,147.5 Z" /></g><g><path style="opacity:0.881" fill="#484848" d="M 1012.5,132.5 C 1014.53,132.338 1016.53,132.505 1018.5,133C 1019.13,133.75 1019.63,134.584 1020,135.5C 1021.05,142.128 1021.55,148.794 1021.5,155.5C 1027.43,155.88 1033.09,154.88 1038.5,152.5C 1042.74,152.575 1044.74,154.741 1044.5,159C 1043.87,162.544 1043.04,166.044 1042,169.5C 1039.39,181.558 1043.89,185.391 1055.5,181C 1058.39,180.059 1060.73,178.393 1062.5,176C 1063.37,168.195 1063.37,160.362 1062.5,152.5C 1065.19,152.336 1067.85,152.503 1070.5,153C 1071.7,153.903 1072.53,155.069 1073,156.5C 1075.07,167.745 1075.74,179.079 1075,190.5C 1070.34,193.564 1066.68,192.564 1064,187.5C 1039.95,198.558 1028.78,190.891 1030.5,164.5C 1027.5,164.5 1024.5,164.5 1021.5,164.5C 1021.35,173.857 1021.68,183.191 1022.5,192.5C 1019.53,193.329 1016.53,193.495 1013.5,193C 1012.3,192.097 1011.47,190.931 1011,189.5C 1010.5,181.507 1010.33,173.507 1010.5,165.5C 1005.83,165.5 1001.17,165.5 996.5,165.5C 996.5,162.5 996.5,159.5 996.5,156.5C 1000.83,156.5 1005.17,156.5 1009.5,156.5C 1009.33,149.159 1009.5,141.826 1010,134.5C 1010.99,133.934 1011.83,133.267 1012.5,132.5 Z" /></g><g><path style="opacity:0.876" fill="#484848" d="M 899.5,164.5 C 895.5,164.5 891.5,164.5 887.5,164.5C 887.832,173.857 887.498,183.19 886.5,192.5C 882.273,194.501 879.107,193.501 877,189.5C 876.226,181.85 875.726,174.183 875.5,166.5C 871.893,165.511 868.226,165.177 864.5,165.5C 864.239,172.538 864.572,179.538 865.5,186.5C 865.24,188.187 864.573,189.687 863.5,191C 859.683,192.023 856.183,191.523 853,189.5C 849.269,193.05 845.269,193.383 841,190.5C 840.789,183.449 840.122,176.449 839,169.5C 837.004,167.941 834.671,167.274 832,167.5C 828.708,167.026 826.041,168.026 824,170.5C 821.752,177.322 820.585,184.322 820.5,191.5C 816.5,191.5 812.5,191.5 808.5,191.5C 809.112,187.837 809.279,184.17 809,180.5C 807.731,183.913 805.231,186.079 801.5,187C 793.182,189.705 784.682,191.538 776,192.5C 768.291,192.308 761.624,189.641 756,184.5C 753.55,178.112 754.216,172.112 758,166.5C 768.922,153.518 782.255,149.518 798,154.5C 799.519,161.485 796.685,165.152 789.5,165.5C 789.769,163.571 789.269,161.905 788,160.5C 782.357,162.236 776.857,164.402 771.5,167C 765.508,171.073 764.508,175.907 768.5,181.5C 773.717,183.945 779.051,184.111 784.5,182C 791.66,177.831 799.327,176.165 807.5,177C 808,177.5 808.5,178 809,178.5C 808.404,164.207 808.404,149.874 809,135.5C 811.497,133.522 814.331,133.022 817.5,134C 818.701,134.903 819.535,136.069 820,137.5C 820.333,145.167 820.667,152.833 821,160.5C 843.047,152.853 853.38,160.853 852,184.5C 852.333,173.167 852.667,161.833 853,150.5C 856.394,149.544 859.894,149.211 863.5,149.5C 863.5,151.833 863.5,154.167 863.5,156.5C 867.167,156.5 870.833,156.5 874.5,156.5C 874.334,149.825 874.5,143.158 875,136.5C 877.053,132.708 880.219,131.542 884.5,133C 885.191,134.067 885.691,135.234 886,136.5C 886.293,142.867 886.793,149.2 887.5,155.5C 891.548,155.605 895.548,155.272 899.5,154.5C 899.5,157.833 899.5,161.167 899.5,164.5 Z" /></g><g><path style="opacity:0.783" fill="#474747" d="M 852.5,135.5 C 855.579,135.26 858.579,135.593 861.5,136.5C 863.075,144.401 860.075,146.568 852.5,143C 849.914,140.506 849.914,138.006 852.5,135.5 Z" /></g><g><path style="opacity:0.46" fill="#e3e3e3" d="M 494.5,145.5 C 495.613,146.946 495.78,148.613 495,150.5C 494.506,148.866 494.34,147.199 494.5,145.5 Z" /></g><g><path style="opacity:0.888" fill="#484848" d="M 1078.5,148.5 C 1084.03,148.36 1087.03,151.027 1087.5,156.5C 1092.59,154.192 1097.92,152.358 1103.5,151C 1109.5,150.333 1115.5,150.333 1121.5,151C 1124.17,154.333 1124.17,157.667 1121.5,161C 1116.26,160.073 1110.93,159.74 1105.5,160C 1096.38,161.373 1091.04,166.54 1089.5,175.5C 1090.71,181.109 1091.38,186.775 1091.5,192.5C 1089.12,192.443 1086.78,192.777 1084.5,193.5C 1082.62,193.124 1081.12,192.124 1080,190.5C 1077.64,177.251 1076.31,163.917 1076,150.5C 1076.99,149.934 1077.83,149.267 1078.5,148.5 Z" /></g><g><path style="opacity:0.897" fill="#484848" d="M 899.5,164.5 C 910.003,149.15 923.336,146.316 939.5,156C 943.051,160.415 943.384,165.082 940.5,170C 939.167,170.667 937.833,171.333 936.5,172C 928.833,172.333 921.167,172.667 913.5,173C 908.235,175.902 908.235,178.902 913.5,182C 921.643,182.638 929.31,180.971 936.5,177C 938.769,176.242 940.936,176.409 943,177.5C 946.411,164.755 954.578,156.589 967.5,153C 972.762,151.561 978.096,151.228 983.5,152C 987.292,154.053 988.458,157.219 987,161.5C 984.859,164.321 982.025,165.654 978.5,165.5C 978.769,163.571 978.269,161.905 977,160.5C 971.357,162.236 965.857,164.402 960.5,167C 955.148,170.535 953.815,175.035 956.5,180.5C 961.817,183.959 967.483,184.459 973.5,182C 980.66,177.831 988.327,176.165 996.5,177C 998.698,178.878 998.864,181.045 997,183.5C 985.233,189.567 972.733,192.4 959.5,192C 952.751,191.129 947.418,187.962 943.5,182.5C 933.083,191.801 921.083,194.635 907.5,191C 900.665,188.328 897.331,183.328 897.5,176C 897.649,172.06 898.316,168.227 899.5,164.5 Z M 923.5,158.5 C 926.588,158.377 929.255,159.377 931.5,161.5C 931,161.833 930.5,162.167 930,162.5C 924.54,163.597 919.04,163.764 913.5,163C 916.703,160.997 920.036,159.497 923.5,158.5 Z" /></g><g><path style="opacity:0.904" fill="#484848" d="M 1139.5,150.5 C 1149.23,148.699 1157.73,151.032 1165,157.5C 1167.11,161.781 1166.94,165.948 1164.5,170C 1163.17,170.667 1161.83,171.333 1160.5,172C 1152.83,172.333 1145.17,172.667 1137.5,173C 1132.23,175.902 1132.23,178.902 1137.5,182C 1145.64,182.638 1153.31,180.971 1160.5,177C 1164.15,175.703 1166.82,176.703 1168.5,180C 1163.99,186.743 1157.66,190.743 1149.5,192C 1143.43,192.804 1137.43,192.471 1131.5,191C 1124.66,188.328 1121.33,183.328 1121.5,176C 1122.24,163.658 1128.24,155.158 1139.5,150.5 Z M 1147.5,158.5 C 1150.59,158.377 1153.25,159.377 1155.5,161.5C 1155,161.833 1154.5,162.167 1154,162.5C 1148.54,163.597 1143.04,163.764 1137.5,163C 1140.7,160.997 1144.04,159.497 1147.5,158.5 Z" /></g><g><path style="opacity:0.999" fill="#494949" d="M 305.5,183.5 C 312.833,183.5 320.167,183.5 327.5,183.5C 327.187,190.755 327.52,197.921 328.5,205C 320.841,205.5 313.174,205.666 305.5,205.5C 305.5,198.167 305.5,190.833 305.5,183.5 Z" /></g><g><path style="opacity:0.998" fill="#494949" d="M 334.5,183.5 C 341.5,183.5 348.5,183.5 355.5,183.5C 355.5,190.833 355.5,198.167 355.5,205.5C 348.5,205.5 341.5,205.5 334.5,205.5C 334.5,198.167 334.5,190.833 334.5,183.5 Z" /></g><g><path style="opacity:0.441" fill="#e2e5e7" d="M 272.5,189.5 C 271.833,189.5 271.167,189.5 270.5,189.5C 269.205,187.628 269.372,185.962 271,184.5C 271.352,186.247 271.852,187.914 272.5,189.5 Z" /></g><g><path style="opacity:0.995" fill="#bae2fc" d="M 137.5,210.5 C 136.502,240.329 136.169,270.329 136.5,300.5C 112.833,300.5 89.1667,300.5 65.5,300.5C 65.5,276.833 65.5,253.167 65.5,229.5C 97.9638,215.053 130.13,199.72 162,183.5C 162.87,184.108 163.37,184.941 163.5,186C 162.77,189.794 162.27,193.627 162,197.5C 153.727,201.719 145.561,206.052 137.5,210.5 Z" /></g><g><path style="opacity:0.995" fill="#bae2fc" d="M 596.5,230.5 C 596.5,253.833 596.5,277.167 596.5,300.5C 573.167,300.5 549.833,300.5 526.5,300.5C 526.667,270.498 526.5,240.498 526,210.5C 525.329,209.748 524.496,209.414 523.5,209.5C 515.729,205.781 508.063,201.781 500.5,197.5C 499.925,192.859 498.925,188.359 497.5,184C 530.855,198.339 563.855,213.839 596.5,230.5 Z" /></g><g><path style="opacity:0.996" fill="#77c5fa" d="M 270.5,189.5 C 271.167,189.5 271.833,189.5 272.5,189.5C 272.5,222.167 272.5,254.833 272.5,287.5C 253.167,287.5 233.833,287.5 214.5,287.5C 214.5,263.833 214.5,240.167 214.5,216.5C 233.162,207.502 251.829,198.502 270.5,189.5 Z" /></g><g><path style="opacity:1" fill="#78c5fb" d="M 447.5,215.5 C 447.5,239.5 447.5,263.5 447.5,287.5C 428.167,287.5 408.833,287.5 389.5,287.5C 389.5,254.833 389.5,222.167 389.5,189.5C 390.873,189.343 392.207,189.51 393.5,190C 411.225,199.181 429.225,207.681 447.5,215.5 Z" /></g><g><path style="opacity:0.87" fill="#707d86" d="M 444.5,203.5 C 445.833,203.5 447.167,203.5 448.5,203.5C 448.831,231.672 448.498,259.672 447.5,287.5C 447.5,263.5 447.5,239.5 447.5,215.5C 447.5,211.833 447.5,208.167 447.5,204.5C 446.209,204.737 445.209,204.404 444.5,203.5 Z" /></g><g><path style="opacity:0.416" fill="#e5e5e5" d="M 314.5,206.5 C 315.586,206.62 316.253,207.287 316.5,208.5C 316.167,209.167 315.833,209.833 315.5,210.5C 314.571,209.311 314.238,207.978 314.5,206.5 Z" /></g><g><path style="opacity:0.999" fill="#4d4d4d" d="M 305.5,211.5 C 312.833,211.5 320.167,211.5 327.5,211.5C 327.5,219.167 327.5,226.833 327.5,234.5C 320.245,234.813 313.079,234.48 306,233.5C 305.5,226.174 305.334,218.841 305.5,211.5 Z" /></g><g><path style="opacity:0.999" fill="#4a4a4a" d="M 334.5,211.5 C 341.5,211.5 348.5,211.5 355.5,211.5C 355.5,219.167 355.5,226.833 355.5,234.5C 348.217,233.268 341.217,233.268 334.5,234.5C 334.5,226.833 334.5,219.167 334.5,211.5 Z" /></g><g><path style="opacity:0.881" fill="#484848" d="M 942.5,287.5 C 942.672,286.508 942.338,285.842 941.5,285.5C 941.797,270.452 941.131,255.452 939.5,240.5C 939.581,234.978 942.248,233.144 947.5,235C 948.717,236.648 949.55,238.481 950,240.5C 951.741,251.095 952.741,261.761 953,272.5C 960.363,260.402 971.196,255.069 985.5,256.5C 985.715,247.487 986.215,238.487 987,229.5C 989.013,225.016 992.513,223.349 997.5,224.5C 996.921,239.334 996.254,254.167 995.5,269C 996.029,276.839 996.196,284.672 996,292.5C 990.368,295.911 986.368,294.577 984,288.5C 974.724,294.471 965.224,294.971 955.5,290C 954.874,289.25 954.374,288.416 954,287.5C 952.539,293.489 948.706,295.822 942.5,294.5C 942.5,292.167 942.5,289.833 942.5,287.5 Z M 976.5,265.5 C 978.833,265.5 981.167,265.5 983.5,265.5C 985.551,274 982.551,279.5 974.5,282C 963.815,286.976 960.648,284.143 965,273.5C 968.464,270.195 972.297,267.528 976.5,265.5 Z" /></g><g><path style="opacity:0.976" fill="#999999" d="M 161.5,226.5 C 162.467,227.806 163.801,228.473 165.5,228.5C 164.432,229.434 163.099,229.768 161.5,229.5C 161.5,228.5 161.5,227.5 161.5,226.5 Z" /></g><g><path style="opacity:0.996" fill="#848484" d="M 20.5,235.5 C 22.0418,236.301 23.7085,236.634 25.5,236.5C 23.1276,239.476 21.461,239.143 20.5,235.5 Z" /></g><g><path style="opacity:0.655" fill="#a0a0a0" d="M 461.5,211.5 C 461.5,236.833 461.5,262.167 461.5,287.5C 471.833,287.5 482.167,287.5 492.5,287.5C 492.819,292.363 492.486,297.03 491.5,301.5C 491.5,301.167 491.5,300.833 491.5,300.5C 491.5,296.5 491.5,292.5 491.5,288.5C 481.167,288.5 470.833,288.5 460.5,288.5C 460.169,262.661 460.502,236.995 461.5,211.5 Z" /></g><g><path style="opacity:0.877" fill="#484848" d="M 855.5,236.5 C 858.85,236.335 862.183,236.502 865.5,237C 867.229,238.789 867.896,240.956 867.5,243.5C 851.53,244.627 841.364,252.961 837,268.5C 836.333,272.167 836.333,275.833 837,279.5C 838.584,283.248 841.417,285.248 845.5,285.5C 852.764,284.119 858.93,280.786 864,275.5C 864.499,271.848 864.665,268.182 864.5,264.5C 856.921,266.318 849.254,267.151 841.5,267C 840.292,262.774 841.959,260.107 846.5,259C 856.772,257.066 867.105,255.566 877.5,254.5C 880.131,254.321 882.465,254.987 884.5,256.5C 887.208,254.564 890.208,254.064 893.5,255C 895.594,256.255 896.594,258.088 896.5,260.5C 893.811,267.615 892.978,274.948 894,282.5C 901.38,285.495 908.047,284.161 914,278.5C 914.906,276.256 915.406,273.923 915.5,271.5C 914.707,265.86 914.374,260.193 914.5,254.5C 917.187,254.336 919.854,254.503 922.5,255C 923.893,256.171 924.727,257.671 925,259.5C 926.102,269.976 926.935,280.476 927.5,291C 925.842,294.297 923.175,295.297 919.5,294C 918.213,292.59 917.046,291.09 916,289.5C 906.12,295.415 896.287,295.582 886.5,290C 885.283,288.352 884.45,286.519 884,284.5C 883.125,276.839 882.292,269.173 881.5,261.5C 879.259,262.032 877.759,263.365 877,265.5C 876.821,276.41 876.321,287.243 875.5,298C 871.88,299.579 868.214,299.745 864.5,298.5C 863.893,294.511 863.227,290.511 862.5,286.5C 852.493,294.945 841.826,296.112 830.5,290C 824.939,284.636 823.105,278.136 825,270.5C 828.097,252.581 838.264,241.248 855.5,236.5 Z" /></g><g><path style="opacity:0.783" fill="#474747" d="M 928.5,237.5 C 931.579,237.26 934.579,237.593 937.5,238.5C 939.075,246.401 936.075,248.568 928.5,245C 925.914,242.506 925.914,240.006 928.5,237.5 Z" /></g><g><path style="opacity:0.366" fill="#e5e5e5" d="M 314.5,238.5 C 315.586,238.62 316.253,239.287 316.5,240.5C 316.167,241.167 315.833,241.833 315.5,242.5C 314.571,241.311 314.238,239.978 314.5,238.5 Z" /></g><g><path style="opacity:0.996" fill="#868e93" d="M 596.5,217.5 C 597.498,244.995 597.831,272.662 597.5,300.5C 601.5,300.5 605.5,300.5 609.5,300.5C 609.5,276.167 609.5,251.833 609.5,227.5C 610.498,251.994 610.831,276.661 610.5,301.5C 605.833,301.5 601.167,301.5 596.5,301.5C 596.5,301.167 596.5,300.833 596.5,300.5C 596.5,277.167 596.5,253.833 596.5,230.5C 596.5,226.167 596.5,221.833 596.5,217.5 Z" /></g><g><path style="opacity:0.856" fill="#4c4c4c" d="M 940.5,286.5 C 940.328,287.492 940.662,288.158 941.5,288.5C 941.249,290.17 940.582,291.67 939.5,293C 935.683,294.023 932.183,293.523 929,291.5C 928.333,278.5 928.333,265.5 929,252.5C 932.394,251.544 935.894,251.211 939.5,251.5C 940.055,263.159 940.388,274.826 940.5,286.5 Z" /></g><g><path style="opacity:0.943" fill="#7d8388" d="M 65.5,218.5 C 65.5,222.167 65.5,225.833 65.5,229.5C 65.5,253.167 65.5,276.833 65.5,300.5C 65.5,300.833 65.5,301.167 65.5,301.5C 61.5,301.5 57.5,301.5 53.5,301.5C 54.1575,275.478 53.4908,249.812 51.5,224.5C 52.209,223.596 53.209,223.263 54.5,223.5C 54.5,249.167 54.5,274.833 54.5,300.5C 57.8333,300.5 61.1667,300.5 64.5,300.5C 64.1688,272.995 64.5021,245.662 65.5,218.5 Z" /></g><g><path style="opacity:0.004" fill="#000000" d="M 941.5,285.5 C 942.338,285.842 942.672,286.508 942.5,287.5C 941.833,287.5 941.5,287.833 941.5,288.5C 940.662,288.158 940.328,287.492 940.5,286.5C 941.167,286.5 941.5,286.167 941.5,285.5 Z" /></g><g><path style="opacity:0.899" fill="#d8edfb" d="M 137.5,210.5 C 137.5,240.833 137.5,271.167 137.5,301.5C 113.5,301.5 89.5,301.5 65.5,301.5C 65.5,301.167 65.5,300.833 65.5,300.5C 89.1667,300.5 112.833,300.5 136.5,300.5C 136.169,270.329 136.502,240.329 137.5,210.5 Z" /></g><g><path style="opacity:0.857" fill="#8d8d8d" d="M 197.5,288.5 C 181.833,288.5 166.167,288.5 150.5,288.5C 150.5,292.5 150.5,296.5 150.5,300.5C 264.167,300.5 377.833,300.5 491.5,300.5C 491.5,300.833 491.5,301.167 491.5,301.5C 377.5,301.5 263.5,301.5 149.5,301.5C 149.5,296.833 149.5,292.167 149.5,287.5C 165.675,287.17 181.675,287.504 197.5,288.5 Z" /></g><g><path style="opacity:0.927" fill="#d2ebfc" d="M 523.5,209.5 C 524.496,209.414 525.329,209.748 526,210.5C 526.5,240.498 526.667,270.498 526.5,300.5C 549.833,300.5 573.167,300.5 596.5,300.5C 596.5,300.833 596.5,301.167 596.5,301.5C 572.833,301.5 549.167,301.5 525.5,301.5C 525.667,271.498 525.5,241.498 525,211.5C 524.283,210.956 523.783,210.289 523.5,209.5 Z" /></g></svg>