<!DOCTYPE svg PUBLIC "-//W3C//DTD SVG 1.1//EN" "http://www.w3.org/Graphics/SVG/1.1/DTD/svg11.dtd"[]><svg xmlns="http://www.w3.org/2000/svg" version="1.1" width="106" height="49" style="shape-rendering:geometricPrecision; text-rendering:geometricPrecision; image-rendering:optimizeQuality; fill-rule:evenodd; clip-rule:evenodd" xmlns:xlink="http://www.w3.org/1999/xlink" viewBox="0 0 677 318"><g><path style="opacity:0.996" fill="#4d4e4e" d="M 508.5,150.5 C 522.598,144.285 536.598,137.785 550.5,131C 551.944,130.219 553.277,130.386 554.5,131.5C 555.97,134.273 557.303,137.106 558.5,140C 558.355,140.772 558.022,141.439 557.5,142C 542.68,148.91 528.013,156.077 513.5,163.5C 529.248,171.707 545.248,179.374 561.5,186.5C 565.511,188.173 569.511,189.84 573.5,191.5C 572.546,155.193 572.213,118.859 572.5,82.5C 547.418,69.9588 522.085,57.9588 496.5,46.5C 496.165,78.3465 495.165,110.013 493.5,141.5C 490.404,140.453 487.404,139.12 484.5,137.5C 483.833,104.833 483.167,72.1667 482.5,39.5C 476.379,36.9397 470.379,34.1064 464.5,31C 466.934,27.1548 469.267,23.3215 471.5,19.5C 517.447,40.8647 563.114,62.698 608.5,85C 607.961,87.4818 606.961,89.6484 605.5,91.5C 604.607,93.297 603.274,94.6304 601.5,95.5C 596.49,93.5787 591.657,91.2453 587,88.5C 586.167,125.171 586.333,161.838 587.5,198.5C 607.442,207.471 627.108,216.971 646.5,227C 644.968,231.235 642.801,235.069 640,238.5C 630.227,233.697 620.394,229.03 610.5,224.5C 609.614,225.325 609.281,226.325 609.5,227.5C 609.5,251.833 609.5,276.167 609.5,300.5C 605.5,300.5 601.5,300.5 597.5,300.5C 597.831,272.662 597.498,244.995 596.5,217.5C 563.397,202.449 530.397,187.116 497.5,171.5C 482.565,177.968 467.898,184.968 453.5,192.5C 470.899,201.199 488.232,209.866 505.5,218.5C 503.825,222.525 501.659,226.192 499,229.5C 486.322,223.911 473.822,217.911 461.5,211.5C 460.502,236.995 460.169,262.661 460.5,288.5C 470.833,288.5 481.167,288.5 491.5,288.5C 491.5,292.5 491.5,296.5 491.5,300.5C 377.833,300.5 264.167,300.5 150.5,300.5C 150.5,296.5 150.5,292.5 150.5,288.5C 166.167,288.5 181.833,288.5 197.5,288.5C 198.583,288.461 199.583,288.127 200.5,287.5C 201.666,262.173 201.833,236.84 201,211.5C 189.221,217.306 177.388,222.973 165.5,228.5C 163.801,228.473 162.467,227.806 161.5,226.5C 158.856,223.745 157.856,220.578 158.5,217C 175.509,208.829 192.509,200.662 209.5,192.5C 194.915,185.025 180.082,178.025 165,171.5C 131.626,186.771 98.459,202.438 65.5,218.5C 64.5021,245.662 64.1688,272.995 64.5,300.5C 61.1667,300.5 57.8333,300.5 54.5,300.5C 54.5,274.833 54.5,249.167 54.5,223.5C 53.209,223.263 52.209,223.596 51.5,224.5C 43.0774,229.045 34.4107,233.045 25.5,236.5C 23.7085,236.634 22.0418,236.301 20.5,235.5C 18.7463,232.767 17.0797,229.933 15.5,227C 35.2571,217.372 55.0904,207.872 75,198.5C 75.6667,161.833 75.6667,125.167 75,88.5C 69.9117,91.2943 64.7451,93.961 59.5,96.5C 57.295,93.4234 55.6284,90.0901 54.5,86.5C 54.5569,85.391 54.8902,84.391 55.5,83.5C 101.053,61.8899 146.719,40.5566 192.5,19.5C 193.927,23.6263 195.427,27.6263 197,31.5C 191.242,34.2953 185.408,36.962 179.5,39.5C 178.667,72.1616 178.167,104.828 178,137.5C 174.676,139.579 171.176,141.246 167.5,142.5C 166.833,110.5 166.167,78.5 165.5,46.5C 139.7,58.3782 114.033,70.5449 88.5,83C 88.698,118.768 89.3647,154.935 90.5,191.5C 93.8599,189.82 97.1932,188.153 100.5,186.5C 116.505,178.832 132.505,171.166 148.5,163.5C 133.811,156.488 119.145,149.488 104.5,142.5C 104.31,138.496 105.643,134.83 108.5,131.5C 109.365,130.417 110.365,130.251 111.5,131C 125.362,137.788 139.362,144.288 153.5,150.5C 153.5,151.167 153.833,151.5 154.5,151.5C 157.262,152.38 159.929,153.546 162.5,155C 164.167,155.667 165.833,155.667 167.5,155C 184.621,147.273 201.621,139.273 218.5,131C 219.793,130.51 221.127,130.343 222.5,130.5C 223.57,134.08 224.903,137.58 226.5,141C 226.167,141.5 225.833,142 225.5,142.5C 210.711,149.395 196.044,156.561 181.5,164C 196.436,170.72 211.27,177.553 226,184.5C 232.452,181.69 238.952,179.023 245.5,176.5C 246.117,176.389 246.617,176.056 247,175.5C 247.167,160.667 247.333,145.833 247.5,131C 247.499,115.818 246.833,100.985 245.5,86.5C 238.739,89.9638 231.906,93.2971 225,96.5C 223.349,93.1978 221.682,89.8644 220,86.5C 219.251,85.365 219.417,84.365 220.5,83.5C 252.138,69.0132 283.472,54.0132 314.5,38.5C 308.098,35.4246 301.764,32.2579 295.5,29C 297.864,25.4414 299.531,21.608 300.5,17.5C 310.829,21.7467 320.995,26.4133 331,31.5C 340.757,26.705 350.591,22.0383 360.5,17.5C 363.322,21.476 365.322,25.8094 366.5,30.5C 359.932,32.7834 353.599,35.6168 347.5,39C 379.707,53.9548 411.707,69.2882 443.5,85C 441.46,88.9144 439.293,92.7478 437,96.5C 430.457,92.8953 423.791,89.5619 417,86.5C 416.5,116.498 416.333,146.498 416.5,176.5C 422.4,178.449 428.066,180.949 433.5,184C 435.167,184.667 436.833,184.667 438.5,184C 452.654,177.423 466.654,170.59 480.5,163.5C 465.842,156.505 451.175,149.505 436.5,142.5C 435.417,141.635 435.251,140.635 436,139.5C 437.897,136.873 439.397,134.039 440.5,131C 441.833,130.333 443.167,130.333 444.5,131C 462.046,139.356 479.546,147.856 497,156.5C 500.781,154.36 504.615,152.36 508.5,150.5 Z M 403.5,91.5 C 389.938,85.9197 376.605,79.9197 363.5,73.5C 362.71,72.5987 361.71,71.9321 360.5,71.5C 361.231,69.4012 361.231,67.4012 360.5,65.5C 359.83,67.2914 359.163,68.9581 358.5,70.5C 357.503,87.6586 357.17,104.992 357.5,122.5C 348.937,126.814 340.271,131.147 331.5,135.5C 322.321,131.409 313.321,127.076 304.5,122.5C 304.181,105.786 304.515,89.1192 305.5,72.5C 305.192,71.6919 304.692,71.0253 304,70.5C 289.342,77.913 274.508,84.913 259.5,91.5C 259.176,87.4454 259.509,83.4454 260.5,79.5C 284.082,68.3066 307.748,57.3066 331.5,46.5C 354.833,57.5 378.167,68.5 401.5,79.5C 402.287,80.2421 402.953,81.0754 403.5,82C 402.862,85.0707 402.862,88.2374 403.5,91.5 Z M 304.5,138.5 C 308.053,139.517 311.386,141.017 314.5,143C 311.294,144.769 307.961,146.269 304.5,147.5C 304.5,144.5 304.5,141.5 304.5,138.5 Z M 356.5,138.5 C 357.477,141.287 357.81,144.287 357.5,147.5C 354.074,146.289 350.741,144.789 347.5,143C 350.527,141.487 353.527,139.987 356.5,138.5 Z M 444.5,203.5 C 445.209,204.404 446.209,204.737 447.5,204.5C 447.5,208.167 447.5,211.833 447.5,215.5C 429.225,207.681 411.225,199.181 393.5,190C 392.207,189.51 390.873,189.343 389.5,189.5C 389.5,222.167 389.5,254.833 389.5,287.5C 350.5,287.5 311.5,287.5 272.5,287.5C 272.5,254.833 272.5,222.167 272.5,189.5C 271.852,187.914 271.352,186.247 271,184.5C 269.372,185.962 269.205,187.628 270.5,189.5C 251.829,198.502 233.162,207.502 214.5,216.5C 214.207,212.563 214.54,208.73 215.5,205C 253.94,186.697 292.44,168.53 331,150.5C 368.764,168.299 406.597,185.965 444.5,203.5 Z" /></g><g><path style="opacity:0.379" fill="#f9fcfe" d="M 154.5,67.5 C 154.719,66.325 154.386,65.325 153.5,64.5C 152.893,64.6236 152.56,64.9569 152.5,65.5C 151.609,66.1098 150.609,66.4431 149.5,66.5C 151.144,64.5193 152.81,62.5193 154.5,60.5C 150.922,58.7656 151.422,57.4323 156,56.5C 160.578,57.4323 161.078,58.7656 157.5,60.5C 157.709,61.086 158.043,61.586 158.5,62C 156.532,63.4615 155.198,65.2948 154.5,67.5 Z" /></g><g><path style="opacity:0.489" fill="#e5e5e5" d="M 316.5,70.5 C 314.974,69.5081 314.307,68.0081 314.5,66C 314.833,64.8333 315.167,63.6667 315.5,62.5C 316.48,65.0865 316.813,67.7531 316.5,70.5 Z" /></g><g><path style="opacity:0.431" fill="#e3e4e5" d="M 360.5,71.5 C 359.508,71.6716 358.842,71.3382 358.5,70.5C 359.163,68.9581 359.83,67.2914 360.5,65.5C 361.231,67.4012 361.231,69.4012 360.5,71.5 Z" /></g><g><path style="opacity:0.999" fill="#77c4f9" d="M 152.5,65.5 C 153.498,93.6618 153.831,121.995 153.5,150.5C 139.362,144.288 125.362,137.788 111.5,131C 110.365,130.251 109.365,130.417 108.5,131.5C 105.643,134.83 104.31,138.496 104.5,142.5C 119.145,149.488 133.811,156.488 148.5,163.5C 132.505,171.166 116.505,178.832 100.5,186.5C 100.333,154.165 100.5,121.832 101,89.5C 102.33,88.4178 103.83,87.7512 105.5,87.5C 117.354,82.0722 129.021,76.4055 140.5,70.5C 143.378,68.8946 146.378,67.5612 149.5,66.5C 150.609,66.4431 151.609,66.1098 152.5,65.5 Z" /></g><g><path style="opacity:0.998" fill="#494949" d="M 317.5,70.5 C 321.514,70.3345 325.514,70.5012 329.5,71C 328.544,74.3936 328.211,77.8936 328.5,81.5C 325.038,82.4816 321.371,82.815 317.5,82.5C 317.5,78.5 317.5,74.5 317.5,70.5 Z" /></g><g><path style="opacity:1" fill="#515151" d="M 344.5,80.5 C 341.316,82.4136 337.649,83.0803 333.5,82.5C 332.517,78.7016 332.183,74.7016 332.5,70.5C 336.846,70.3343 341.179,70.501 345.5,71C 344.549,74.0567 344.216,77.2234 344.5,80.5 Z" /></g><g><path style="opacity:0.999" fill="#76c4fa" d="M 304.5,122.5 C 297.493,119.913 290.659,116.913 284,113.5C 281.462,116.736 279.296,120.236 277.5,124C 286.502,128.834 295.502,133.668 304.5,138.5C 304.5,141.5 304.5,144.5 304.5,147.5C 289.714,155.059 274.714,162.392 259.5,169.5C 258.177,143.434 258.177,117.434 259.5,91.5C 274.508,84.913 289.342,77.913 304,70.5C 304.692,71.0253 305.192,71.6919 305.5,72.5C 304.515,89.1192 304.181,105.786 304.5,122.5 Z" /></g><g><path style="opacity:0.999" fill="#76c4fa" d="M 363.5,73.5 C 376.605,79.9197 389.938,85.9197 403.5,91.5C 403.833,117.509 403.5,143.509 402.5,169.5C 387.32,162.409 372.32,155.076 357.5,147.5C 357.81,144.287 357.477,141.287 356.5,138.5C 365.957,133.938 375.29,129.105 384.5,124C 382.73,120.634 381.397,117.134 380.5,113.5C 373.018,116.106 365.684,119.106 358.5,122.5C 358.333,107.163 358.5,91.8297 359,76.5C 359.589,74.1367 361.089,73.1367 363.5,73.5 Z" /></g><g><path style="opacity:0.873" fill="#93d0fa" d="M 358.5,70.5 C 358.842,71.3382 359.508,71.6716 360.5,71.5C 361.71,71.9321 362.71,72.5987 363.5,73.5C 361.089,73.1367 359.589,74.1367 359,76.5C 358.5,91.8297 358.333,107.163 358.5,122.5C 358.167,122.5 357.833,122.5 357.5,122.5C 357.17,104.992 357.503,87.6586 358.5,70.5 Z" /></g><g><path style="opacity:0.631" fill="#8f8f8f" d="M 165.5,46.5 C 166.167,78.5 166.833,110.5 167.5,142.5C 167.44,143.043 167.107,143.376 166.5,143.5C 165.5,111.174 165.167,78.8402 165.5,46.5 Z" /></g><g><path style="opacity:0.382" fill="#f3f8fc" d="M 140.5,70.5 C 129.021,76.4055 117.354,82.0722 105.5,87.5C 106.568,85.2598 108.234,83.4264 110.5,82C 114.489,80.6686 118.489,79.3353 122.5,78C 127.579,75.7058 132.079,72.5392 136,68.5C 137.47,69.2666 138.97,69.9332 140.5,70.5 Z" /></g><g><path style="opacity:0.57" fill="#c7c7c7" d="M 316.5,70.5 C 316.833,70.5 317.167,70.5 317.5,70.5C 317.5,74.5 317.5,78.5 317.5,82.5C 321.371,82.815 325.038,82.4816 328.5,81.5C 329.043,81.56 329.376,81.8933 329.5,82.5C 325.5,83.1667 321.5,83.8333 317.5,84.5C 317.709,85.086 318.043,85.586 318.5,86C 322.025,86.1787 325.359,86.6787 328.5,87.5C 324.833,87.5 321.167,87.5 317.5,87.5C 317.5,91.5 317.5,95.5 317.5,99.5C 317.167,99.5 316.833,99.5 316.5,99.5C 316.846,96.3979 316.179,93.5645 314.5,91C 315.901,84.4404 316.568,77.6071 316.5,70.5 Z" /></g><g><path style="opacity:0.797" fill="#aeaeae" d="M 344.5,80.5 C 345.404,81.209 345.737,82.209 345.5,83.5C 341.298,83.8168 337.298,83.4834 333.5,82.5C 337.649,83.0803 341.316,82.4136 344.5,80.5 Z" /></g><g><path style="opacity:0.714" fill="#9d9d9d" d="M 55.5,83.5 C 54.8902,84.391 54.5569,85.391 54.5,86.5C 53.1148,85.0527 53.4482,84.0527 55.5,83.5 Z" /></g><g><path style="opacity:0.979" fill="#797979" d="M 245.5,86.5 C 246.833,100.985 247.499,115.818 247.5,131C 247.333,145.833 247.167,160.667 247,175.5C 246.617,176.056 246.117,176.389 245.5,176.5C 245.598,146.286 245.598,116.286 245.5,86.5 Z" /></g><g><path style="opacity:1" fill="#4c4c4c" d="M 328.5,87.5 C 328.241,91.2396 328.574,94.9062 329.5,98.5C 325.555,99.4909 321.555,99.8242 317.5,99.5C 317.5,95.5 317.5,91.5 317.5,87.5C 321.167,87.5 324.833,87.5 328.5,87.5 Z" /></g><g><path style="opacity:0.998" fill="#4a4a4a" d="M 344.5,87.5 C 344.395,91.5483 344.728,95.5483 345.5,99.5C 341.5,99.5 337.5,99.5 333.5,99.5C 333.5,95.5 333.5,91.5 333.5,87.5C 337.167,87.5 340.833,87.5 344.5,87.5 Z" /></g><g><path style="opacity:0.527" fill="#bbbbbb" d="M 344.5,87.5 C 340.833,87.5 337.167,87.5 333.5,87.5C 333.5,91.5 333.5,95.5 333.5,99.5C 332.515,95.3656 332.182,91.0323 332.5,86.5C 337.278,86.1649 341.278,86.4982 344.5,87.5 Z" /></g><g><path style="opacity:1" fill="#6d6d6d" d="M 496.5,46.5 C 496.833,78.8402 496.5,111.174 495.5,143.5C 494.478,143.145 493.811,142.478 493.5,141.5C 495.165,110.013 496.165,78.3465 496.5,46.5 Z" /></g><g><path style="opacity:0.894" fill="#a4a4a4" d="M 605.5,91.5 C 605.771,95.1512 604.437,96.4846 601.5,95.5C 603.274,94.6304 604.607,93.297 605.5,91.5 Z" /></g><g><path style="opacity:0.508" fill="#e4e4e4" d="M 316.5,99.5 C 316.931,104.032 316.431,108.365 315,112.5C 314.333,108.5 314.333,104.5 315,100.5C 315.383,99.944 315.883,99.6107 316.5,99.5 Z" /></g><g><path style="opacity:0.655" fill="#addbfb" d="M 152.5,65.5 C 152.56,64.9569 152.893,64.6236 153.5,64.5C 154.386,65.325 154.719,66.325 154.5,67.5C 154.5,95.5 154.5,123.5 154.5,151.5C 153.833,151.5 153.5,151.167 153.5,150.5C 153.831,121.995 153.498,93.6618 152.5,65.5 Z" /></g><g><path style="opacity:0.938" fill="#77c5fa" d="M 561.5,186.5 C 545.248,179.374 529.248,171.707 513.5,163.5C 528.013,156.077 542.68,148.91 557.5,142C 558.022,141.439 558.355,140.772 558.5,140C 557.303,137.106 555.97,134.273 554.5,131.5C 553.277,130.386 551.944,130.219 550.5,131C 536.598,137.785 522.598,144.285 508.5,150.5C 508.765,121.819 508.431,93.152 507.5,64.5C 525.839,72.8954 544.172,81.3954 562.5,90C 562.143,122.359 561.809,154.526 561.5,186.5 Z" /></g><g><path style="opacity:0.46" fill="#e3e3e3" d="M 494.5,145.5 C 495.613,146.946 495.78,148.613 495,150.5C 494.506,148.866 494.34,147.199 494.5,145.5 Z" /></g><g><path style="opacity:0.999" fill="#494949" d="M 305.5,183.5 C 312.833,183.5 320.167,183.5 327.5,183.5C 327.187,190.755 327.52,197.921 328.5,205C 320.841,205.5 313.174,205.666 305.5,205.5C 305.5,198.167 305.5,190.833 305.5,183.5 Z" /></g><g><path style="opacity:0.998" fill="#494949" d="M 334.5,183.5 C 341.5,183.5 348.5,183.5 355.5,183.5C 355.5,190.833 355.5,198.167 355.5,205.5C 348.5,205.5 341.5,205.5 334.5,205.5C 334.5,198.167 334.5,190.833 334.5,183.5 Z" /></g><g><path style="opacity:0.441" fill="#e2e5e7" d="M 272.5,189.5 C 271.833,189.5 271.167,189.5 270.5,189.5C 269.205,187.628 269.372,185.962 271,184.5C 271.352,186.247 271.852,187.914 272.5,189.5 Z" /></g><g><path style="opacity:0.995" fill="#bae2fc" d="M 137.5,210.5 C 136.502,240.329 136.169,270.329 136.5,300.5C 112.833,300.5 89.1667,300.5 65.5,300.5C 65.5,276.833 65.5,253.167 65.5,229.5C 97.9638,215.053 130.13,199.72 162,183.5C 162.87,184.108 163.37,184.941 163.5,186C 162.77,189.794 162.27,193.627 162,197.5C 153.727,201.719 145.561,206.052 137.5,210.5 Z" /></g><g><path style="opacity:0.995" fill="#bae2fc" d="M 596.5,230.5 C 596.5,253.833 596.5,277.167 596.5,300.5C 573.167,300.5 549.833,300.5 526.5,300.5C 526.667,270.498 526.5,240.498 526,210.5C 525.329,209.748 524.496,209.414 523.5,209.5C 515.729,205.781 508.063,201.781 500.5,197.5C 499.925,192.859 498.925,188.359 497.5,184C 530.855,198.339 563.855,213.839 596.5,230.5 Z" /></g><g><path style="opacity:0.996" fill="#77c5fa" d="M 270.5,189.5 C 271.167,189.5 271.833,189.5 272.5,189.5C 272.5,222.167 272.5,254.833 272.5,287.5C 253.167,287.5 233.833,287.5 214.5,287.5C 214.5,263.833 214.5,240.167 214.5,216.5C 233.162,207.502 251.829,198.502 270.5,189.5 Z" /></g><g><path style="opacity:1" fill="#78c5fb" d="M 447.5,215.5 C 447.5,239.5 447.5,263.5 447.5,287.5C 428.167,287.5 408.833,287.5 389.5,287.5C 389.5,254.833 389.5,222.167 389.5,189.5C 390.873,189.343 392.207,189.51 393.5,190C 411.225,199.181 429.225,207.681 447.5,215.5 Z" /></g><g><path style="opacity:0.87" fill="#707d86" d="M 444.5,203.5 C 445.833,203.5 447.167,203.5 448.5,203.5C 448.831,231.672 448.498,259.672 447.5,287.5C 447.5,263.5 447.5,239.5 447.5,215.5C 447.5,211.833 447.5,208.167 447.5,204.5C 446.209,204.737 445.209,204.404 444.5,203.5 Z" /></g><g><path style="opacity:0.416" fill="#e4e4e4" d="M 314.5,206.5 C 315.586,206.62 316.253,207.287 316.5,208.5C 316.167,209.167 315.833,209.833 315.5,210.5C 314.571,209.311 314.238,207.978 314.5,206.5 Z" /></g><g><path style="opacity:0.999" fill="#4d4d4d" d="M 305.5,211.5 C 312.833,211.5 320.167,211.5 327.5,211.5C 327.5,219.167 327.5,226.833 327.5,234.5C 320.245,234.813 313.079,234.48 306,233.5C 305.5,226.174 305.334,218.841 305.5,211.5 Z" /></g><g><path style="opacity:0.999" fill="#4a4a4a" d="M 334.5,211.5 C 341.5,211.5 348.5,211.5 355.5,211.5C 355.5,219.167 355.5,226.833 355.5,234.5C 348.217,233.268 341.217,233.268 334.5,234.5C 334.5,226.833 334.5,219.167 334.5,211.5 Z" /></g><g><path style="opacity:0.976" fill="#999999" d="M 161.5,226.5 C 162.467,227.806 163.801,228.473 165.5,228.5C 164.432,229.434 163.099,229.768 161.5,229.5C 161.5,228.5 161.5,227.5 161.5,226.5 Z" /></g><g><path style="opacity:0.65" fill="#9f9f9f" d="M 461.5,211.5 C 461.5,236.833 461.5,262.167 461.5,287.5C 471.833,287.5 482.167,287.5 492.5,287.5C 492.819,292.363 492.486,297.03 491.5,301.5C 491.5,301.167 491.5,300.833 491.5,300.5C 491.5,296.5 491.5,292.5 491.5,288.5C 481.167,288.5 470.833,288.5 460.5,288.5C 460.169,262.661 460.502,236.995 461.5,211.5 Z" /></g><g><path style="opacity:0.996" fill="#848484" d="M 20.5,235.5 C 22.0418,236.301 23.7085,236.634 25.5,236.5C 23.1276,239.476 21.461,239.143 20.5,235.5 Z" /></g><g><path style="opacity:0.361" fill="#e4e4e4" d="M 314.5,238.5 C 315.586,238.62 316.253,239.287 316.5,240.5C 316.167,241.167 315.833,241.833 315.5,242.5C 314.571,241.311 314.238,239.978 314.5,238.5 Z" /></g><g><path style="opacity:0.996" fill="#868e93" d="M 596.5,217.5 C 597.498,244.995 597.831,272.662 597.5,300.5C 601.5,300.5 605.5,300.5 609.5,300.5C 609.5,276.167 609.5,251.833 609.5,227.5C 610.498,251.994 610.831,276.661 610.5,301.5C 605.833,301.5 601.167,301.5 596.5,301.5C 596.5,301.167 596.5,300.833 596.5,300.5C 596.5,277.167 596.5,253.833 596.5,230.5C 596.5,226.167 596.5,221.833 596.5,217.5 Z" /></g><g><path style="opacity:0.943" fill="#7d8388" d="M 65.5,218.5 C 65.5,222.167 65.5,225.833 65.5,229.5C 65.5,253.167 65.5,276.833 65.5,300.5C 65.5,300.833 65.5,301.167 65.5,301.5C 61.5,301.5 57.5,301.5 53.5,301.5C 54.1575,275.478 53.4908,249.812 51.5,224.5C 52.209,223.596 53.209,223.263 54.5,223.5C 54.5,249.167 54.5,274.833 54.5,300.5C 57.8333,300.5 61.1667,300.5 64.5,300.5C 64.1688,272.995 64.5021,245.662 65.5,218.5 Z" /></g><g><path style="opacity:0.896" fill="#d8edfb" d="M 137.5,210.5 C 137.5,240.833 137.5,271.167 137.5,301.5C 113.5,301.5 89.5,301.5 65.5,301.5C 65.5,301.167 65.5,300.833 65.5,300.5C 89.1667,300.5 112.833,300.5 136.5,300.5C 136.169,270.329 136.502,240.329 137.5,210.5 Z" /></g><g><path style="opacity:0.859" fill="#8d8d8d" d="M 197.5,288.5 C 181.833,288.5 166.167,288.5 150.5,288.5C 150.5,292.5 150.5,296.5 150.5,300.5C 264.167,300.5 377.833,300.5 491.5,300.5C 491.5,300.833 491.5,301.167 491.5,301.5C 377.5,301.5 263.5,301.5 149.5,301.5C 149.5,296.833 149.5,292.167 149.5,287.5C 165.675,287.17 181.675,287.504 197.5,288.5 Z" /></g><g><path style="opacity:0.912" fill="#d2ebfc" d="M 523.5,209.5 C 524.496,209.414 525.329,209.748 526,210.5C 526.5,240.498 526.667,270.498 526.5,300.5C 549.833,300.5 573.167,300.5 596.5,300.5C 596.5,300.833 596.5,301.167 596.5,301.5C 572.833,301.5 549.167,301.5 525.5,301.5C 525.667,271.498 525.5,241.498 525,211.5C 524.283,210.956 523.783,210.289 523.5,209.5 Z" /></g></svg>