<svg xmlns="http://www.w3.org/2000/svg" viewBox="-0.855 -0.855 24 24" height="24" width="24">
  <title>LinkedIn</title>
  <g id="linkedin--network-linkedin-professional" fill="currentColor">
    <path d="M5.6897 2.8133c0.0043 0.5505 -0.2082 1.0806 -0.5916 1.4758 -0.3833 0.3951 -0.9068 0.6236 -1.4572 0.636 -0.5493 -0.0202 -1.0698 -0.2505 -1.454 -0.6436 -0.3842 -0.393 -0.6028 -0.9186 -0.6105 -1.4682 0.0239 -0.5354 0.2505 -1.0418 0.6338 -1.4164 0.3834 -0.3746 0.8948 -0.5894 1.4307 -0.6008 0.5343 0.0117 1.044 0.227 1.4248 0.602 0.3808 0.375 0.604 0.8812 0.624 1.4152ZM1.7971 8.6758c0 -1.2135 0.7722 -1.0244 1.8439 -1.0244 1.0717 0 1.8281 -0.1891 1.8281 1.0244v11.8197c0 1.2293 -0.7722 0.9771 -1.8281 0.9771 -1.0559 0 -1.8439 0.2522 -1.8439 -0.9771V8.6758Z"/>
    <path d="M8.6525 8.676c0 -0.6777 0.2521 -0.9298 0.6461 -1.0086 0.394 -0.0788 1.7493 0 2.2221 0 0.4728 0 0.6619 0.7722 0.6461 1.3553 0.4044 -0.5428 0.9414 -0.9727 1.5594 -1.2486 0.6181 -0.2759 1.2966 -0.3886 1.9707 -0.3273 0.6619 -0.0405 1.325 0.0588 1.9461 0.2913 0.6209 0.2325 1.1863 0.5931 1.6589 1.0583 0.4727 0.4652 0.8421 1.0246 1.0844 1.642 0.2423 0.6173 0.352 1.2787 0.3221 1.9412v8.0689c0 1.2293 -0.7564 0.9771 -1.8281 0.9771 -1.0716 0 -1.8281 0.2522 -1.8281 -0.9771V14.1446c0.0277 -0.3244 -0.0146 -0.651 -0.1243 -0.9576 -0.1097 -0.3066 -0.2842 -0.586 -0.5114 -0.8192 -0.2272 -0.2332 -0.502 -0.4148 -0.8056 -0.5324 -0.3036 -0.1176 -0.629 -0.1685 -0.9541 -0.1492 -0.3235 -0.0082 -0.6451 0.0524 -0.9435 0.1778 -0.2984 0.1254 -0.5667 0.3128 -0.7872 0.5497 -0.2205 0.2369 -0.3882 0.5179 -0.4919 0.8245 -0.1037 0.3066 -0.1412 0.6317 -0.1098 0.9538V20.4957c0 1.2293 -0.7722 0.9771 -1.8439 0.9771 -1.0716 0 -1.8281 0.2522 -1.8281 -0.9771V8.676Z"/>
  </g>
</svg>
